<?xml version="1.0" standalone="no"?>
<!DOCTYPE svg PUBLIC "-//W3C//DTD SVG 20010904//EN"
 "http://www.w3.org/TR/2001/REC-SVG-20010904/DTD/svg10.dtd">
<svg version="1.0" xmlns="http://www.w3.org/2000/svg"
 width="453.000000pt" height="453.000000pt" viewBox="0 0 453.000000 453.000000"
 preserveAspectRatio="xMidYMid meet">
<metadata>
Created by potrace 1.11, written by Peter Selinger 2001-2013
</metadata>
<g transform="translate(0.000000,453.000000) scale(0.100000,-0.100000)"
fill="#000000" stroke="none">
<path d="M2097 4234 c-271 -35 -579 -145 -803 -289 -46 -29 -87 -47 -115 -51
-96 -12 -208 -92 -265 -190 -14 -24 -29 -44 -33 -44 -4 0 -12 19 -18 43 -18
65 -71 138 -123 166 -61 34 -154 34 -225 0 -57 -27 -137 -102 -185 -173 -131
-194 -259 -590 -295 -911 -4 -33 -9 -69 -11 -80 -19 -93 -26 -574 -11 -725 27
-261 101 -422 212 -460 80 -27 188 -9 238 39 26 24 37 27 37 9 0 -24 88 -209
146 -305 273 -457 707 -782 1220 -912 95 -24 124 -30 189 -37 28 -3 54 -8 59
-11 15 -10 370 -11 441 -2 128 16 149 20 235 40 180 42 307 88 460 167 229
119 435 280 599 469 l44 51 42 -14 c62 -22 161 -30 240 -21 172 19 328 149
351 291 15 96 -25 179 -92 192 -28 5 -34 10 -28 23 22 51 40 143 38 189 -5 94
-32 152 -105 222 l-37 35 13 90 c13 88 13 408 1 485 -75 466 -257 837 -562
1144 -259 261 -573 439 -927 526 -71 17 -152 33 -180 36 -28 3 -55 8 -60 11
-20 12 -386 10 -490 -3z m443 -67 c19 -3 58 -9 85 -12 28 -4 70 -11 95 -16 25
-5 59 -12 75 -15 68 -12 277 -88 383 -139 93 -45 246 -135 295 -175 7 -5 41
-33 77 -61 340 -272 594 -695 669 -1114 6 -33 13 -71 16 -85 19 -92 25 -353
11 -465 -4 -33 -9 -73 -10 -90 -2 -23 -7 -29 -22 -28 -199 26 -382 -72 -476
-254 -50 -97 -64 -153 -67 -266 -1 -52 -5 -62 -33 -88 -41 -40 -60 -34 -71 20
-8 41 -5 50 85 230 52 102 109 224 127 271 18 47 37 94 41 105 29 69 77 253
88 335 9 63 8 216 0 268 -17 102 -89 197 -167 220 -50 15 -123 15 -158 0 -84
-36 -164 -123 -211 -228 -22 -50 -72 -193 -78 -223 -2 -11 -8 -34 -13 -51 -6
-17 -13 -51 -16 -76 -4 -24 -8 -47 -11 -51 -3 -6 -7 -26 -20 -129 -4 -25 -8
-52 -9 -60 -1 -9 -30 -25 -71 -38 -38 -13 -91 -39 -119 -58 -67 -44 -159 -137
-187 -190 -28 -53 -65 -65 -75 -25 -23 94 -111 209 -193 251 -85 44 -137 51
-251 36 -95 -13 -234 -98 -280 -172 -23 -39 -39 -44 -39 -13 0 29 -57 111 -96
138 -97 67 -226 70 -354 8 -54 -27 -73 -41 -124 -91 -75 -76 -135 -195 -152
-303 -19 -118 2 -265 51 -349 14 -23 21 -45 17 -49 -4 -3 -2 -5 3 -4 6 2 27
-13 49 -34 31 -29 132 -89 156 -93 3 0 30 -4 60 -9 144 -22 264 2 403 79 l44
25 22 -23 c17 -18 100 -67 121 -72 119 -24 179 -24 253 1 36 12 81 32 101 44
49 31 132 125 163 185 l26 51 12 -50 c23 -99 79 -171 168 -215 119 -58 259
-39 360 49 31 28 34 29 45 11 12 -19 102 -86 102 -75 0 3 10 0 23 -6 31 -17
137 -13 189 7 23 10 67 33 96 52 47 31 55 33 68 20 14 -13 2 -28 -98 -129 -62
-63 -127 -126 -143 -139 -119 -96 -208 -156 -312 -211 -43 -23 -87 -46 -98
-52 -11 -6 -22 -12 -25 -13 -7 -1 -37 -14 -85 -34 -45 -20 -115 -44 -130 -46
-5 0 -17 -4 -25 -7 -51 -19 -159 -44 -265 -61 -115 -19 -327 -25 -462 -13
-202 18 -433 79 -593 155 -30 14 -57 26 -60 26 -3 1 -41 21 -85 45 -216 119
-415 285 -570 476 -62 77 -166 236 -197 300 -12 28 -26 52 -29 55 -10 8 -89
200 -89 216 0 8 9 40 19 72 28 81 34 132 35 257 0 110 -7 208 -25 320 -5 33
-9 65 -9 71 0 6 24 10 59 11 l58 0 16 -51 c21 -66 85 -164 128 -196 84 -62
194 -83 307 -56 64 15 86 25 149 67 l42 29 28 -23 c76 -62 153 -86 265 -82
167 5 300 101 379 273 24 50 34 62 52 62 13 0 24 -6 24 -12 3 -75 33 -188 60
-229 24 -35 72 -74 103 -84 47 -15 124 -13 170 4 54 20 89 49 126 103 15 21
29 38 33 38 3 0 14 -20 25 -45 30 -75 100 -115 192 -111 60 3 121 26 162 61
27 22 122 139 122 149 0 4 12 25 26 48 64 101 223 432 257 533 26 79 2 146
-64 178 -46 22 -157 16 -200 -11 -44 -26 -77 -65 -85 -97 -3 -14 -10 -28 -15
-31 -5 -3 -9 -13 -9 -22 -1 -9 -9 -35 -20 -57 -11 -22 -19 -43 -20 -47 0 -4
-13 -35 -30 -70 -33 -71 -31 -78 -32 107 -1 66 -5 132 -10 147 -35 102 -206
128 -288 45 -19 -20 -51 -84 -92 -188 -34 -87 -64 -157 -65 -155 -2 2 -5 69
-8 150 -3 142 -4 148 -31 183 -37 48 -75 62 -157 58 -55 -3 -75 -9 -102 -30
-59 -45 -66 -64 -66 -192 -1 -51 -5 -93 -10 -93 -5 0 -9 6 -9 14 0 30 -72 154
-115 199 -112 114 -292 137 -460 56 -149 -71 -268 -282 -266 -475 0 -53 -3
-64 -25 -83 -30 -26 -66 -41 -98 -41 -25 0 -43 29 -52 87 -5 32 -1 40 63 106
108 113 197 251 259 402 14 33 29 69 34 80 9 20 47 154 55 195 2 12 6 29 9 38
18 60 25 250 13 327 -14 90 -58 173 -114 218 l-23 19 24 19 c13 10 27 19 30
19 3 0 27 13 55 29 27 16 51 27 54 25 2 -2 10 2 17 11 7 8 18 15 24 15 6 0 25
7 41 16 95 50 334 124 452 140 26 3 50 7 53 9 3 2 41 6 85 10 44 4 81 8 82 9
5 5 269 -2 303 -7z m-1395 -743 c-10 -108 -73 -344 -91 -344 -8 0 18 127 57
277 16 62 29 115 29 118 0 3 2 5 5 5 3 0 3 -25 0 -56z m-590 -16 c-9 -46 -48
-159 -53 -154 -4 5 49 186 56 186 2 0 1 -15 -3 -32z m121 -466 c-5 -9 -19
-170 -19 -214 1 -30 -10 -35 -82 -32 -92 3 -87 2 -74 26 6 12 23 33 36 47 13
14 49 61 81 103 31 43 58 78 60 78 2 0 1 -4 -2 -8z m958 -379 c8 -17 27 -44
41 -61 22 -26 24 -34 14 -56 -18 -38 -54 -59 -79 -46 -11 6 -25 20 -31 32 -16
30 -15 154 1 203 l14 40 12 -41 c6 -22 19 -54 28 -71z m2467 -947 c-12 -22
-50 -51 -57 -43 -2 2 10 24 28 48 31 43 53 40 29 -5z m-2393 -113 c29 -52 151
-76 204 -41 22 15 23 14 25 -21 2 -43 -15 -65 -78 -96 -88 -45 -178 -35 -200
22 -6 15 -11 55 -10 88 1 69 2 76 21 130 l14 40 6 -50 c3 -27 11 -60 18 -72z
m632 72 c0 -8 0 -17 0 -20 0 -14 55 -111 75 -133 19 -21 22 -29 13 -46 -31
-61 -76 -74 -104 -31 -20 31 -26 145 -11 204 11 40 27 56 27 26z m864 -94 l7
-104 -33 -34 c-36 -37 -54 -42 -60 -15 -5 19 -2 85 6 117 2 11 5 25 5 30 1 13
62 118 66 113 1 -1 6 -50 9 -107z"/>
</g>
</svg>
